<svg width="291" height="381" viewBox="0 0 291 381" fill="none" xmlns="http://www.w3.org/2000/svg">
    <rect x="5" y="5" width="281" height="371" rx="5" stroke="black" stroke-width="10" />
    <path
        d="M26.736 274V228.56H42.416C49.7973 228.56 55.472 230.544 59.44 234.512C63.408 238.437 65.392 244.048 65.392 251.344C65.392 258.597 63.4293 264.187 59.504 268.112C55.6213 272.037 50.0533 274 42.8 274H26.736ZM36.464 265.808H42.416C46.8107 265.808 50.0533 264.635 52.144 262.288C54.2773 259.899 55.344 256.229 55.344 251.28C55.344 246.331 54.2773 242.683 52.144 240.336C50.0533 237.947 46.8107 236.752 42.416 236.752H36.464V265.808ZM82.65 274.768C79.1087 274.768 76.2073 273.957 73.946 272.336C71.7273 270.672 70.618 268.368 70.618 265.424C70.618 262.395 71.5567 260.069 73.434 258.448C75.354 256.784 78.17 255.568 81.882 254.8L92.954 252.624C92.954 250.405 92.442 248.741 91.418 247.632C90.4367 246.48 89.0073 245.904 87.13 245.904C85.2953 245.904 83.866 246.331 82.842 247.184C81.818 247.995 81.1567 249.211 80.858 250.832L71.194 250.384C71.834 246.629 73.5193 243.792 76.25 241.872C79.0233 239.909 82.65 238.928 87.13 238.928C92.25 238.928 96.09 240.144 98.65 242.576C101.253 245.008 102.554 248.571 102.554 253.264V264.976C102.554 265.957 102.703 266.619 103.002 266.96C103.343 267.259 103.834 267.408 104.474 267.408H105.434V274C105.135 274.085 104.645 274.171 103.962 274.256C103.322 274.341 102.682 274.384 102.042 274.384C100.677 274.384 99.3967 274.149 98.202 273.68C97.05 273.211 96.1113 272.421 95.386 271.312C94.6607 270.16 94.298 268.539 94.298 266.448L95.13 267.088C94.7033 268.624 93.9353 269.968 92.826 271.12C91.7593 272.272 90.3513 273.168 88.602 273.808C86.8953 274.448 84.9113 274.768 82.65 274.768ZM84.954 268.176C86.5327 268.176 87.9193 267.877 89.114 267.28C90.3087 266.64 91.2473 265.723 91.93 264.528C92.6127 263.333 92.954 261.925 92.954 260.304V258.64L85.146 260.304C83.61 260.603 82.4367 261.115 81.626 261.84C80.858 262.523 80.474 263.419 80.474 264.528C80.474 265.68 80.858 266.576 81.626 267.216C82.394 267.856 83.5033 268.176 84.954 268.176ZM110.474 274V239.696H119.114L119.498 249.744L118.282 249.424C118.623 246.864 119.306 244.816 120.33 243.28C121.397 241.744 122.719 240.635 124.298 239.952C125.877 239.269 127.605 238.928 129.482 238.928C131.957 238.928 134.047 239.461 135.754 240.528C137.503 241.595 138.826 243.109 139.722 245.072C140.661 246.992 141.13 249.275 141.13 251.92V274H131.53V255.12C131.53 253.285 131.381 251.728 131.082 250.448C130.783 249.168 130.25 248.208 129.482 247.568C128.714 246.885 127.647 246.544 126.282 246.544C124.277 246.544 122.741 247.291 121.674 248.784C120.607 250.235 120.074 252.347 120.074 255.12V274H110.474ZM149.036 274V239.696H158.637V274H149.036ZM148.845 235.472V227.792H158.765V235.472H148.845ZM26.736 357V311.56H46.64C49.968 311.56 52.848 312.115 55.28 313.224C57.7547 314.333 59.6533 315.912 60.976 317.96C62.2987 319.965 62.96 322.355 62.96 325.128C62.96 327.219 62.512 329.075 61.616 330.696C60.7627 332.317 59.568 333.64 58.032 334.664C56.5387 335.688 54.8107 336.328 52.848 336.584L52.656 336.008C55.6853 336.008 57.9893 336.669 59.568 337.992C61.1467 339.272 62.0427 341.256 62.256 343.944L63.408 357H53.488L52.656 345.48C52.528 343.731 51.9733 342.451 50.992 341.64C50.0533 340.787 48.432 340.36 46.128 340.36H36.464V357H26.736ZM36.464 332.232H45.552C47.8987 332.232 49.712 331.699 50.992 330.632C52.3147 329.523 52.976 327.965 52.976 325.96C52.976 323.912 52.3147 322.376 50.992 321.352C49.6693 320.285 47.7493 319.752 45.232 319.752H36.464V332.232ZM85.148 357.768C81.6493 357.768 78.5987 357.043 75.996 355.592C73.436 354.099 71.4307 352.008 69.98 349.32C68.572 346.632 67.868 343.475 67.868 339.848C67.868 336.221 68.572 333.085 69.98 330.44C71.4307 327.752 73.436 325.661 75.996 324.168C78.556 322.675 81.5853 321.928 85.084 321.928C88.4973 321.928 91.4627 322.675 93.98 324.168C96.4973 325.661 98.4387 327.795 99.804 330.568C101.212 333.341 101.916 336.648 101.916 340.488V342.408H77.788C77.916 345.139 78.6413 347.165 79.964 348.488C81.3293 349.811 83.1213 350.472 85.34 350.472C86.9613 350.472 88.3053 350.131 89.372 349.448C90.4813 348.765 91.2707 347.72 91.74 346.312L101.404 346.888C100.508 350.301 98.6093 352.968 95.708 354.888C92.8067 356.808 89.2867 357.768 85.148 357.768ZM77.788 336.52H92.06C91.932 334.003 91.228 332.125 89.948 330.888C88.7107 329.651 87.0893 329.032 85.084 329.032C83.0787 329.032 81.4147 329.693 80.092 331.016C78.812 332.296 78.044 334.131 77.788 336.52ZM107.849 366.6V322.696H117.065L117.257 329.928L116.489 329.608C117.342 327.133 118.729 325.235 120.649 323.912C122.569 322.589 124.809 321.928 127.369 321.928C130.569 321.928 133.236 322.717 135.369 324.296C137.502 325.875 139.102 328.029 140.169 330.76C141.278 333.448 141.833 336.477 141.833 339.848C141.833 343.176 141.278 346.205 140.169 348.936C139.102 351.667 137.481 353.821 135.305 355.4C133.172 356.979 130.505 357.768 127.305 357.768C125.641 357.768 124.084 357.469 122.633 356.872C121.182 356.232 119.924 355.357 118.857 354.248C117.833 353.139 117.086 351.816 116.617 350.28L117.449 349.768V366.6H107.849ZM124.681 350.408C126.942 350.408 128.713 349.469 129.993 347.592C131.316 345.715 131.977 343.133 131.977 339.848C131.977 336.563 131.316 333.981 129.993 332.104C128.713 330.227 126.942 329.288 124.681 329.288C123.188 329.288 121.886 329.693 120.777 330.504C119.71 331.272 118.878 332.445 118.281 334.024C117.726 335.603 117.449 337.544 117.449 339.848C117.449 342.152 117.726 344.093 118.281 345.672C118.878 347.251 119.71 348.445 120.777 349.256C121.886 350.024 123.188 350.408 124.681 350.408ZM158.275 357.768C154.734 357.768 151.832 356.957 149.571 355.336C147.352 353.672 146.243 351.368 146.243 348.424C146.243 345.395 147.182 343.069 149.059 341.448C150.979 339.784 153.795 338.568 157.507 337.8L168.579 335.624C168.579 333.405 168.067 331.741 167.043 330.632C166.062 329.48 164.632 328.904 162.755 328.904C160.92 328.904 159.491 329.331 158.467 330.184C157.443 330.995 156.782 332.211 156.483 333.832L146.819 333.384C147.459 329.629 149.144 326.792 151.875 324.872C154.648 322.909 158.275 321.928 162.755 321.928C167.875 321.928 171.715 323.144 174.275 325.576C176.878 328.008 178.179 331.571 178.179 336.264V347.976C178.179 348.957 178.328 349.619 178.627 349.96C178.968 350.259 179.459 350.408 180.099 350.408H181.059V357C180.76 357.085 180.27 357.171 179.587 357.256C178.947 357.341 178.307 357.384 177.667 357.384C176.302 357.384 175.022 357.149 173.827 356.68C172.675 356.211 171.736 355.421 171.011 354.312C170.286 353.16 169.923 351.539 169.923 349.448L170.755 350.088C170.328 351.624 169.56 352.968 168.451 354.12C167.384 355.272 165.976 356.168 164.227 356.808C162.52 357.448 160.536 357.768 158.275 357.768ZM160.579 351.176C162.158 351.176 163.544 350.877 164.739 350.28C165.934 349.64 166.872 348.723 167.555 347.528C168.238 346.333 168.579 344.925 168.579 343.304V341.64L160.771 343.304C159.235 343.603 158.062 344.115 157.251 344.84C156.483 345.523 156.099 346.419 156.099 347.528C156.099 348.68 156.483 349.576 157.251 350.216C158.019 350.856 159.128 351.176 160.579 351.176ZM185.599 357V322.696H195.199V357H185.599ZM185.407 318.472V310.792H195.327V318.472H185.407ZM204.036 357V322.696H213.125L213.445 332.68L212.741 332.488C213.295 329.032 214.277 326.536 215.685 325C217.093 323.464 219.034 322.696 221.509 322.696H224.645V330.632H221.509C219.717 330.632 218.245 330.867 217.093 331.336C215.941 331.805 215.066 332.552 214.469 333.576C213.914 334.6 213.637 335.987 213.637 337.736V357H204.036ZM243.318 357.768C239.776 357.768 236.811 357.277 234.422 356.296C232.032 355.272 230.198 353.907 228.918 352.2C227.68 350.451 226.976 348.445 226.806 346.184L236.534 345.864C236.832 347.485 237.515 348.744 238.582 349.64C239.648 350.536 241.227 350.984 243.318 350.984C245.024 350.984 246.347 350.707 247.286 350.152C248.267 349.597 248.758 348.744 248.758 347.592C248.758 346.867 248.587 346.269 248.246 345.8C247.904 345.288 247.222 344.861 246.198 344.52C245.216 344.136 243.744 343.795 241.782 343.496C238.155 342.856 235.318 342.109 233.27 341.256C231.222 340.403 229.771 339.293 228.918 337.928C228.064 336.563 227.638 334.899 227.638 332.936C227.638 329.651 228.896 327.005 231.414 325C233.974 322.952 237.792 321.928 242.87 321.928C246.112 321.928 248.822 322.44 250.998 323.464C253.216 324.488 254.923 325.896 256.118 327.688C257.355 329.437 258.123 331.443 258.422 333.704L248.758 334.088C248.63 332.979 248.288 332.04 247.734 331.272C247.222 330.461 246.56 329.843 245.75 329.416C244.939 328.947 243.958 328.712 242.806 328.712C241.099 328.712 239.776 329.075 238.838 329.8C237.942 330.483 237.494 331.4 237.494 332.552C237.494 333.405 237.686 334.109 238.07 334.664C238.496 335.176 239.179 335.603 240.118 335.944C241.056 336.285 242.315 336.563 243.894 336.776C247.563 337.288 250.464 338.013 252.598 338.952C254.774 339.848 256.331 340.979 257.27 342.344C258.208 343.709 258.678 345.395 258.678 347.4C258.678 349.619 258.038 351.496 256.757 353.032C255.478 354.568 253.686 355.741 251.382 356.552C249.12 357.363 246.432 357.768 243.318 357.768Z"
        fill="black" />
</svg>